<?xml version="1.0" encoding="utf-8"?>
<!-- Generator: Adobe Illustrator 27.8.1, SVG Export Plug-In . SVG Version: 6.00 Build 0)  -->
<svg version="1.1" id="Layer_1" xmlns="http://www.w3.org/2000/svg" xmlns:xlink="http://www.w3.org/1999/xlink" x="0px" y="0px"
	 viewBox="0 0 200 200" style="enable-background:new 0 0 200 200;" xml:space="preserve">
<style type="text/css">
	.st0{fill:#246FCF;}
</style>
<path class="st0" d="M133,179.7c-0.7,0-1.5-0.2-2.2-0.7l-42.2-30.1c-49.4-3.5-86.5-31.1-86.5-64.4c0-35.6,43.7-64.7,97.6-64.7
	c53.7,0,97.8,29.1,97.8,64.7c0,26.5-23.4,49.6-59.9,59.6v32c0,1.5-1.1,2.5-2.3,3.2C134.6,179.5,133.5,179.7,133,179.7z M99.7,27
	C49.8,27,9.5,52.8,9.5,84.4c0,29.7,34.7,54.1,80.7,57.1c0.7,0,1.9,0.4,2.3,0.7l37.7,26.7v-27.8c0-1.7,0.7-3.1,2.3-3.4
	c34.9-8.5,57.4-29.5,57.4-53.2C189.7,52.8,149.2,27,99.7,27z"/>
</svg>
