<?xml version="1.0" encoding="utf-8"?>
<!-- Generator: Adobe Illustrator 27.8.1, SVG Export Plug-In . SVG Version: 6.00 Build 0)  -->
<svg version="1.1" id="Layer_1" xmlns="http://www.w3.org/2000/svg" xmlns:xlink="http://www.w3.org/1999/xlink" x="0px" y="0px"
	 viewBox="0 0 256 256" style="enable-background:new 0 0 256 256;" xml:space="preserve">
<style type="text/css">
	.st0{fill:#246FCF;}
</style>
<path class="st0" d="M207.6,57.9h23c6.5,0,11.8-5.3,11.8-11.8V23c0-6.5-5.3-11.8-11.8-11.8h-23c-6.5,0-11.8,5.3-11.8,11.8v8h-22.2
	c-1.9,0-3.5,1.6-3.5,3.5v43.1h-18.7v-7.8c0-6.5-5.3-11.8-11.8-11.8h-5.6c-1.9,0-3.5,1.6-3.5,3.5s1.6,3.5,3.5,3.5h5.6
	c2.7,0,4.8,2.2,4.8,4.8v23c0,2.7-2.2,4.8-4.8,4.8h-23c-2.7,0-4.8-2.2-4.8-4.8V82.1c0-0.2,0.1-0.5,0.1-0.7s0-0.5-0.1-0.7V69.8
	c0-2.7,2.2-4.8,4.8-4.8h3.6c1.9,0,3.5-1.6,3.5-3.5s-1.6-3.5-3.5-3.5h-3.6c-6.5,0-11.8,5.3-11.8,11.8v8H82.5c-1.9,0-3.5,1.6-3.5,3.5
	v43.1H60.2v-7.8c0-6.5-5.3-11.8-11.8-11.8h-23c-6.5,0-11.8,5.3-11.8,11.8v3.9c0,1.9,1.6,3.5,3.5,3.5s3.5-1.6,3.5-3.5v-3.9
	c0-2.7,2.2-4.8,4.8-4.8h23c2.7,0,4.8,2.2,4.8,4.8v23c0,2.7-2.2,4.8-4.8,4.8h-23c-2.7,0-4.8-2.2-4.8-4.8v-4.9c0-1.9-1.6-3.5-3.5-3.5
	s-3.5,1.6-3.5,3.5v4.9c0,6.5,5.3,11.8,11.8,11.8h23c6.5,0,11.8-5.3,11.8-11.8v-8.2H79v43.1c0,1.9,1.6,3.5,3.5,3.5h22.2v8.4
	c0,6.5,5.3,11.8,11.8,11.8h23c6.5,0,11.8-5.3,11.8-11.8v-8.2h18.7v43.1c0,1.9,1.6,3.5,3.5,3.5h22.2v8c0,6.5,5.3,11.8,11.8,11.8h23
	c6.5,0,11.8-5.3,11.8-11.8v-23c0-6.5-5.3-11.8-11.8-11.8h-23c-6.5,0-11.8,5.3-11.8,11.8v8h-18.7v-86.3h18.7v7.6
	c0,6.5,5.3,11.8,11.8,11.8h23c6.5,0,11.8-5.3,11.8-11.8v-23c0-6.5-5.3-11.8-11.8-11.8h-23c-6.5,0-11.8,5.3-11.8,11.8v8.4h-22.2
	c-1.9,0-3.5,1.6-3.5,3.5v43.1h-18.7v-7.8c0-6.5-5.3-11.8-11.8-11.8h-23c-6.5,0-11.8,5.3-11.8,11.8v7.6H86V84.9h18.7v8
	c0,6.5,5.3,11.8,11.8,11.8h23c6.5,0,11.8-5.3,11.8-11.8v-8.2h22.2c1.9,0,3.5-1.6,3.5-3.5V38h18.7v8
	C195.8,52.6,201.1,57.9,207.6,57.9z M235.5,46c0,2.7-2.2,4.8-4.8,4.8h-23c-2.7,0-4.8-2.2-4.8-4.8V35.2c0-0.2,0.1-0.5,0.1-0.7
	s0-0.5-0.1-0.7V23c0-2.7,2.2-4.8,4.8-4.8h23c2.7,0,4.8,2.2,4.8,4.8V46z M144.4,186.5c0,2.7-2.2,4.8-4.8,4.8h-23
	c-2.7,0-4.8-2.2-4.8-4.8v-11.2c0-0.2,0.1-0.5,0.1-0.7s0-0.5-0.1-0.7v-10.4c0-2.7,2.2-4.8,4.8-4.8h23c2.7,0,4.8,2.2,4.8,4.8V186.5z
	 M235.5,233c0,2.7-2.2,4.8-4.8,4.8h-23c-2.7,0-4.8-2.2-4.8-4.8v-10.8c0-0.2,0.1-0.5,0.1-0.7s0-0.5-0.1-0.7V210
	c0-2.7,2.2-4.8,4.8-4.8h23c2.7,0,4.8,2.2,4.8,4.8V233z M235.5,139.3c0,2.7-2.2,4.8-4.8,4.8h-23c-2.7,0-4.8-2.2-4.8-4.8v-10.4
	c0-0.2,0.1-0.5,0.1-0.7s0-0.5-0.1-0.7v-11.2c0-2.7,2.2-4.8,4.8-4.8h23c2.7,0,4.8,2.2,4.8,4.8V139.3z"/>
</svg>
