<?xml version="1.0" encoding="utf-8"?>
<!-- Generator: Adobe Illustrator 27.8.1, SVG Export Plug-In . SVG Version: 6.00 Build 0)  -->
<svg version="1.1" id="Layer_1" xmlns="http://www.w3.org/2000/svg" xmlns:xlink="http://www.w3.org/1999/xlink" x="0px" y="0px"
	 viewBox="0 0 200 200" style="enable-background:new 0 0 200 200;" xml:space="preserve">
<style type="text/css">
	.st0{fill-rule:evenodd;clip-rule:evenodd;fill:#246FCF;}
</style>
<g id="Master_Layer_2">
</g>
<path class="st0" d="M188,63.7c-4.8-11.3-11.7-21.5-20.4-30.3c-8.7-8.7-18.9-15.6-30.3-20.4c-11.7-5-24.2-7.5-37.1-7.5
	S74.9,8,63.2,13c-11.3,4.8-21.5,11.7-30.3,20.4S17.3,52.3,12.5,63.7C7.5,75.4,5,87.9,5,100.7c0,12.9,2.5,25.3,7.5,37.1
	c4.8,11.3,11.7,21.5,20.4,30.3c8.7,8.7,18.9,15.6,30.3,20.4c11.7,5,24.2,7.5,37.1,7.5s25.3-2.5,37.1-7.5
	c11.3-4.8,21.5-11.7,30.3-20.4c8.7-8.7,15.6-18.9,20.4-30.3c5-11.7,7.5-24.2,7.5-37.1S193,75.4,188,63.7z M81.9,188.1
	c1.8-21.8-5.5-32.5-11.4-41.1c-3.7-5.4-6.6-9.6-6.8-15.5c0,0,0-0.1,0-0.1c-0.1-2.9-0.1-52.5,0-55.3c0.1-2.2,1.2-4.9,4.1-5.1
	c0.5,0,2.1-0.1,3.2,0.9c0.8,0.7,1.3,2,1.3,3.8c0,12.1,0.2,28.9,0.3,33.1c0,1.6,1.4,2.9,3,2.9c0,0,0,0,0,0c1.6,0,3-1.4,2.9-3
	c-0.1-4.2-0.3-20.8-0.3-32.7c0,0,0,0,0,0c0,0,0-0.1,0-0.1c0-4.5,0-8.4,0.1-10.6c0.1-3.1,2.4-4.2,3.8-4.2c0,0,0,0,0,0
	c4.6,0,4.6,3,4.6,4.1c0,0,0,0.1,0,0.1l0,1c0,1,0,30.9,0.1,39.1c0,1.6,1.3,3,3,3c0,0,0,0,0,0c1.6,0,3-1.4,3-3
	c0-8.2-0.1-38.7-0.1-39.1c0,0,0,0,0,0l0-1.1c-0.1-6.2-0.1-7.4,0.6-8.2c1-1.2,2.8-1.9,4.5-1.7c2.8,0.4,3.8,2,3.8,3.4
	c0.1,3.2,0.1,7.5,0.1,11.6c0,0.5,0,1.1,0,1.6c0,8.8,0.1,25,0,35.1c0,1.6,1.3,3,3,3c1.6,0,3-1.3,3-3c0.1-9.5,0-24.4,0-33.5
	c0,0,0,0,0,0c0-0.6,0-1.1,0-1.7c0-3.7,0-6.1,0-6.1c0-1,0-4.1,3.8-4.1c1.2,0,4.3,0,4.3,4c0,6.5-0.1,21.6-0.1,36.2
	c0,12.2-0.1,23.7-0.1,28.2c-0.1,0.7,0.1,1.4,0.5,2c0.2,0.3,0.5,0.6,0.8,0.8c0,0,0,0,0,0c0.1,0.1,0.3,0.2,0.4,0.2c0,0,0.1,0,0.1,0.1
	c0.1,0,0.2,0.1,0.4,0.1c0.1,0,0.1,0,0.2,0.1c0.1,0,0.2,0,0.3,0c0.1,0,0.2,0,0.2,0c0,0,0,0,0,0c0,0,0.1,0,0.1,0
	c0.6,0,1.1-0.2,1.6-0.6c3.9-2.8,8.6-6.4,12.1-9.1c2.3-1.7,4.4-3.4,4.9-3.7c3.2-2,6.1-3,8.3-2.9c1.5,0.1,2.4,0.6,3,1
	c1,0.7,1.4,2.2,1.3,3.3c-0.1,1-0.9,3-4.2,6.7c-2.7,3.1-6.4,6.5-10.3,10.2c-9,8.4-19.1,18-22.8,27.7c0,0,0,0,0,0c0,0,0,0,0,0.1
	c-1.8,5.2-1.7,11.7-1.5,20.8c0,0.8,0,1.7,0.1,2.6c-3.5,0.4-7.1,0.6-10.6,0.6C94,190,87.9,189.4,81.9,188.1z M182.5,135.5
	c-4.5,10.6-10.9,20.2-19.1,28.4c-8.2,8.2-17.8,14.6-28.4,19.1c-5.9,2.5-12,4.3-18.2,5.5c0-0.6,0-1.2,0-1.8
	c-0.2-8.5-0.3-14.6,1.2-18.7c0,0,0,0,0,0c3.3-8.4,12.9-17.4,21.3-25.4c8.8-8.3,15.8-14.8,16.3-20.7c0.3-2.8-0.8-6.6-3.8-8.7
	c-5.9-4.1-12.9-1.3-17.9,1.8c-0.7,0.5-2.4,1.7-5.4,4c-2.1,1.6-4.7,3.6-7.2,5.5c0-5.7,0.1-14,0.1-22.6c0.1-14.6,0.1-29.7,0.1-36.2
	c0-2.4-0.7-4.6-2-6.3c-1.3-1.7-3.7-3.6-8.2-3.6c-1.5,0-2.9,0.3-4.2,0.8c-0.4-1.6-1.3-3.1-2.5-4.3c-1.6-1.5-3.8-2.5-6.2-2.8
	c-3.7-0.5-7.5,1.1-9.8,3.9c-0.7,0.9-1.2,1.8-1.5,2.9c-1.5-0.6-3.1-1-5-1c0,0,0,0,0,0c-4.6,0-9.5,3.7-9.7,9.9c0,0.2,0,0.5,0,0.8
	c-1.5-0.7-3.3-0.9-5.1-0.8c-2.5,0.2-4.8,1.3-6.6,3.2c-1.9,2-2.9,4.6-3,7.7c-0.1,3.1-0.1,52.5,0,55.7c0.2,7.6,3.9,13,7.8,18.8
	c5.6,8.1,11.8,17.3,10.5,36.3c-3.6-1-7.1-2.2-10.6-3.7c-10.6-4.5-20.2-10.9-28.4-19.1c-8.2-8.2-14.6-17.8-19.1-28.4
	c-4.7-11-7-22.7-7-34.8C11,88.7,13.3,77,18,66c4.5-10.6,10.9-20.2,19.1-28.4c8.2-8.2,17.7-14.6,28.4-19.1c11-4.7,22.7-7,34.8-7
	c12.1,0,23.8,2.4,34.8,7c10.6,4.5,20.2,10.9,28.4,19.1c8.2,8.2,14.6,17.8,19.1,28.4c4.7,11,7,22.7,7,34.8
	C189.6,112.8,187.2,124.5,182.5,135.5z"/>
</svg>
