<?xml version="1.0" encoding="utf-8"?>
<!-- Generator: Adobe Illustrator 27.8.1, SVG Export Plug-In . SVG Version: 6.00 Build 0)  -->
<svg version="1.1"
	 id="svg11" xmlns:rdf="http://www.w3.org/1999/02/22-rdf-syntax-ns#" xmlns:cc="http://creativecommons.org/ns#" xmlns:dc="http://purl.org/dc/elements/1.1/" xmlns:svg="http://www.w3.org/2000/svg"
	 xmlns="http://www.w3.org/2000/svg" xmlns:xlink="http://www.w3.org/1999/xlink" x="0px" y="0px" viewBox="0 0 200 200"
	 style="enable-background:new 0 0 200 200;" xml:space="preserve">
<style type="text/css">
	.st0{fill:#246FCF;}
</style>
<g>
	<path class="st0" d="M37.3,40.3c0.8-0.7,1.3-1.7,1.3-2.8c0-1.1-0.3-2.1-1.1-2.9c-0.8-0.8-1.9-1.3-3-1.3c-1,0-2,0.4-2.7,1.1
		c-7.5,6.9-11.9,16.3-12.3,26.4c-0.4,10.2,3.1,19.9,10,27.4c0.8,0.8,1.9,1.3,3,1.3c1,0,2-0.4,2.7-1.1c1.7-1.5,1.8-4.1,0.3-5.8
		c-5.4-5.9-8.2-13.5-7.8-21.5C27.9,53.1,31.4,45.7,37.3,40.3z"/>
	<path class="st0" d="M179.8,25.5c-9.7-8.9-22.3-13.8-35.5-13.8c-14.7,0-28.8,6.2-38.7,17l-5.6,6.1l-5.6-6.1
		c-9.9-10.8-24-17-38.7-17c-13.2,0-25.8,4.9-35.5,13.8C-1.1,45.1-2.5,78.4,17,99.7l80,87.2c0.8,0.8,1.9,1.3,3,1.3s2.2-0.5,3-1.3
		l17.8-19.4c0.7-0.8,1.1-1.8,1.1-2.9c0-1.1-0.5-2.1-1.3-2.8c-0.8-0.7-1.7-1.1-2.7-1.1c-1.1,0-2.2,0.5-3,1.3L100,178.2l-77-84
		C6.5,76.2,7.7,48,25.7,31.5c8.2-7.5,18.8-11.6,30-11.6c12.4,0,24.4,5.2,32.7,14.4l8.6,9.4c0.7,0.8,1.8,1.3,3,1.3s2.3-0.5,3-1.3
		l8.6-9.4c8.4-9.1,20.3-14.4,32.7-14.4c11.1,0,21.8,4.1,30,11.6c18,16.5,19.2,44.7,2.7,62.7l-33.5,36.7v-14.7c0-2.2-1.8-4.1-4.1-4.1
		c-2.2,0-4.1,1.8-4.1,4.1v19.6h-19.6c-2.2,0-4.1,1.8-4.1,4.1c0,2.2,1.8,4.1,4.1,4.1h19.6v19.6c0,2.2,1.8,4.1,4.1,4.1
		c2.2,0,4.1-1.8,4.1-4.1V144h19.6c2.2,0,4.1-1.8,4.1-4.1c0-2.2-1.8-4.1-4.1-4.1h-13.1L183,99.7C202.5,78.4,201.1,45.1,179.8,25.5z"
		/>
</g>
</svg>
