<?xml version="1.0" encoding="utf-8"?>
<!-- Generator: Adobe Illustrator 27.8.1, SVG Export Plug-In . SVG Version: 6.00 Build 0)  -->
<svg version="1.1" id="Layer_1" xmlns="http://www.w3.org/2000/svg" xmlns:xlink="http://www.w3.org/1999/xlink" x="0px" y="0px"
	 viewBox="0 0 200 200" style="enable-background:new 0 0 200 200;" xml:space="preserve">
<style type="text/css">
	.st0{fill:#246FCF;}
</style>
<g>
	<path class="st0" d="M143,58c0.8-0.6,1.2-1.5,1.2-2.6c0-1.8-1.5-3.2-3.2-3.2l-20-0.1V39h41.2l0,13.3h-4.8c-1.8,0-3.2,1.5-3.2,3.2
		s1.5,3.2,3.2,3.2h4.8c3.6,0,6.5-3,6.5-6.6V39h3.4v122h-21.2v-52.2c0-3.4-2.7-6.1-6.1-6.1h-4.3c-3.4,0-6.1,2.7-6.1,6.1V161H131
		v-52.2c0-3.4-2.7-6.1-6.1-6.1h-4.2c-3.4,0-6.1,2.7-6.1,6.1v10.4c0,1.8,1.5,3.2,3.2,3.2s3.2-1.5,3.2-3.2v-10h3.5V161H14.7
		c-3.1,0-5.6-2.5-5.7-5.7V66.4c0-3.1,2.5-5.6,5.7-5.7h5.6c1.8,0,3.2-1.5,3.2-3.2s-1.5-3.2-3.2-3.2h-5.6c-6.7,0-12.1,5.5-12.1,12.1
		v88.9c0,6.7,5.5,12.1,12.1,12.1h122.6l0.1,0h0.3l0.3,0l0,0h54.4c2.7,0,5-2.2,5-5V156c0-2.8-2.2-5-5-5h-13.8v-3.3h13.8
		c2.7,0,5-2.2,5-5v-6.5c0-2.8-2.2-5-5-5h-13.8V128h13.8c2.7,0,5-2.2,5-5v-6.5c0-2.8-2.2-5-5-5h-13.8v-3.3h13.8c2.7,0,5-2.2,5-5v-6.5
		c0-2.8-2.2-5-5-5h-13.8v-3.3h13.8c2.7,0,5-2.2,5-5V77c0-2.8-2.2-5-5-5h-13.8v-3.3h13.8c2.7,0,5-2.2,5-5v-6.5c0-2.8-2.2-5-5-5h-13.8
		V49h13.8c2.7,0,5-2.2,5-5v-6.5c0-2.8-2.2-5-5-5h-17c-0.1,0-0.2,0-0.3,0h-9.4c-0.1,0-0.2,0-0.3,0l-0.3,0l0,0h-47l-0.1,0h-0.3
		c-0.1,0-0.2,0-0.3,0h-6.8c-2.6,0-5,0.8-7.1,2.3L78.3,53.2c-1,0.7-2.1,1.1-3.3,1.1H49.9c-1.8,0-3.2,1.5-3.2,3.2s1.5,3.2,3.2,3.2H75
		c2.6,0,5-0.8,7.1-2.3l25.2-18.3c1-0.7,2.1-1.1,3.3-1.1h3.8v13.2c0,3.6,2.9,6.5,6.5,6.5H141 M190.9,42.5h-12.3V39h12.3L190.9,42.5z
		 M190.9,58.7v3.5h-12.3v-3.5H190.9z M190.9,78.5V82h-12.3v-3.5H190.9z M190.9,98.2v3.5h-12.3v-3.5H190.9z M190.9,121.5h-12.3V118
		h12.3L190.9,121.5z M190.9,141.2h-12.3v-3.5h12.3L190.9,141.2z M190.9,157.5v3.5h-12.3v-3.5H190.9z M140.9,161v-51.8h3.5V161H140.9
		z"/>
	<path class="st0" d="M20.1,89.5c0,0.8,0.1,1.6,0.4,2.4c0,0.1,0,0.1,0,0.2v10.5c-4.4,0-7.9,3.6-7.9,8v38.9c0,4.4,3.6,8,8,8h4.7
		c1.8,0,3.2-1.5,3.2-3.2S27,151,25.2,151h-4.7c-0.8,0-1.5-0.7-1.5-1.5v-38.9c0-0.8,0.7-1.5,1.5-1.5h38.9c0.8,0,1.5,0.7,1.5,1.5v38.9
		c0,0.8-0.7,1.5-1.5,1.5H46c-1.8,0-3.2,1.5-3.2,3.2s1.5,3.2,3.2,3.2h13.4c4.4,0,8-3.6,8-8v-3h10c0.2,0,0.4,0,0.6-0.1
		c0.8,0.3,1.7,0.5,2.6,0.5h0c3.9,0,7.1-3.2,7.1-7.1c0-3.9-3.2-7.1-7.1-7.1c-0.9,0-1.7,0.2-2.6,0.5c-0.2,0-0.4-0.1-0.6-0.1h-10v-22.4
		c0-4.4-3.6-8-7.9-8V92.6c0-0.2,0-0.4-0.1-0.5c0.3-0.8,0.5-1.7,0.5-2.5c0-3.9-3.2-7.1-7.1-7.1c-3.9,0-7.1,3.2-7.1,7.1
		c0,0.9,0.2,1.7,0.5,2.5c0,0.2-0.1,0.4-0.1,0.5v10.1H34V92.6c0-0.2,0-0.4-0.1-0.5c0.3-0.8,0.5-1.7,0.5-2.5c0-3.9-3.2-7.1-7.1-7.1
		S20.1,85.6,20.1,89.5z M80.5,137.2c1.5,0,2.6,1.2,2.6,2.6c0,1.5-1.2,2.6-2.6,2.6s-2.6-1.2-2.6-2.6
		C77.9,138.4,79.1,137.2,80.5,137.2z M73.8,137.6c-0.2,0.7-0.4,1.5-0.4,2.2s0.1,1.5,0.4,2.2h-6.3v-4.5H73.8z M52.7,86.9
		c1.5,0,2.6,1.2,2.6,2.6c0,1.5-1.2,2.6-2.6,2.6s-2.6-1.2-2.6-2.6C50.1,88.1,51.3,86.9,52.7,86.9z M50.5,96.3
		c0.7,0.2,1.5,0.4,2.2,0.4c0.8,0,1.5-0.1,2.2-0.4v6.4h-4.5V96.3z M25,102.7v-6.4c0.7,0.2,1.5,0.4,2.2,0.4c0.8,0,1.5-0.1,2.2-0.4v6.4
		H25z M27.2,86.9c1.5,0,2.6,1.2,2.6,2.6c0,1.5-1.2,2.6-2.6,2.6c-1.5,0-2.6-1.2-2.6-2.6S25.8,86.9,27.2,86.9z"/>
</g>
</svg>
