<?xml version="1.0" encoding="utf-8"?>
<!-- Generator: Adobe Illustrator 27.8.1, SVG Export Plug-In . SVG Version: 6.00 Build 0)  -->
<svg version="1.1" id="Layer_1" xmlns="http://www.w3.org/2000/svg" xmlns:xlink="http://www.w3.org/1999/xlink" x="0px" y="0px"
	 viewBox="0 0 200 200" style="enable-background:new 0 0 200 200;" xml:space="preserve">
<style type="text/css">
	.st0{fill:#246FCF;}
</style>
<g>
	<path class="st0" d="M128.1,5.1c-36.7,0-66.5,29.8-66.6,66.5c0,15.4,5.4,30.4,15.1,42.3l-20.8,20.3l-1-1c-1.1-1.1-2.8-1.1-3.9,0
		L6.8,176.7c-1.1,1.1-1.1,2.8-0.1,3.9l13.1,13.5c0.5,0.5,1.2,0.8,2,0.9h0c0.7,0,1.4-0.3,2-0.8l44.5-43.7c1.1-1.1,1.1-2.9,0-4
		c0,0,0,0,0,0l-1.2-1.2l21.1-20.5c29.3,22.1,71.1,16.3,93.2-13.1s16.3-71.1-13.1-93.2C156.7,9.8,142.6,5.1,128.1,5.1z M21.8,188.2
		l-9.2-9.5L53,139.1l9.3,9.3L21.8,188.2z M59.9,138.1l20.6-20.1c1.1,1.1,2.1,2.1,3.2,3.1l-20.7,20.1L59.9,138.1z M128.1,132.6
		c-14,0-27.6-4.9-38.5-13.7c-2.5-2-4.8-4.3-7-6.7c-22.4-25.1-20.2-63.6,4.9-86s63.6-20.2,86,4.9s20.2,63.6-4.9,86
		C157.5,127.1,143.1,132.6,128.1,132.6z"/>
	<path class="st0" d="M128.1,14.7c-31.4,0-56.9,25.5-56.9,56.9c0,14,5.1,27.5,14.4,37.9c2,2.2,4.2,4.3,6.5,6.3
		c10.1,8.3,22.9,12.9,36,12.8c31.4,0,56.9-25.5,56.9-56.9S159.6,14.7,128.1,14.7L128.1,14.7z M128.1,123c-11.8,0-23.3-4-32.4-11.5
		c-2.1-1.7-4.1-3.6-5.9-5.6c-18.9-21.2-17-53.6,4.2-72.5s53.6-17,72.5,4.2s17,53.6-4.2,72.5C152.9,118.4,140.7,123,128.1,123z"/>
</g>
</svg>
