<?xml version="1.0" encoding="utf-8"?>
<!-- Generator: Adobe Illustrator 27.8.1, SVG Export Plug-In . SVG Version: 6.00 Build 0)  -->
<svg version="1.1" id="Layer_1" xmlns="http://www.w3.org/2000/svg" xmlns:xlink="http://www.w3.org/1999/xlink" x="0px" y="0px"
	 viewBox="0 0 200 200" style="enable-background:new 0 0 200 200;" xml:space="preserve">
<style type="text/css">
	.st0{fill:#246FCF;}
</style>
<path class="st0" d="M157.4,178c-0.7,0-1.5-0.2-2-0.7l-16.3-12.5c-0.3-0.2-0.5-0.5-0.5-0.9c0-0.4,0-0.7,0.3-1l2.5-3.2
	c0.3-0.3,0.6-0.5,1.1-0.5c0.3,0,0.6,0.1,0.8,0.3l12,9.3c0.5,0.4,1.1,0.6,1.7,0.6c0.7,0,1.4-0.3,1.9-0.8l9.7-9.7c1-1,1.1-2.5,0.2-3.6
	l-12.9-16.7c-0.8-1.1-0.8-2.7,0-3.8c3.8-6.2,6.6-12.8,8.2-19.8c0.3-1.4,1.5-2.4,2.9-2.6l20.7-2.8c1.3-0.2,2.4-1.3,2.4-2.7V93.2
	c0-1.4-1-2.5-2.4-2.7l-20.9-2.7c-1.4-0.2-2.5-1.2-2.9-2.6c-1.6-7-4.4-13.7-8.2-19.8c-0.8-1.2-0.8-2.7,0-3.9l12.9-16.7
	c0.8-1.1,0.7-2.6-0.2-3.6l-9.7-9.7c-0.5-0.5-1.2-0.8-1.9-0.8c-0.6,0-1.2,0.2-1.7,0.6l-16.7,12.9c-0.5,0.4-1.2,0.6-1.9,0.6
	c-0.7,0-1.3-0.2-1.9-0.6c-6.2-3.8-12.8-6.6-19.8-8.2c-1.4-0.3-2.4-1.5-2.6-2.9l-2.5-20.7c-0.2-1.4-1.3-2.4-2.7-2.4H93.2
	c-1.4,0-2.5,1-2.7,2.4l-2.7,20.9c-0.2,1.4-1.2,2.5-2.6,2.9c-7,1.6-13.7,4.4-19.8,8.2c-0.6,0.4-1.3,0.6-1.9,0.6s-1.3-0.2-1.9-0.6
	l-16.7-13c-0.5-0.4-1.1-0.6-1.7-0.6c-0.7,0-1.4,0.3-1.9,0.8l-9.6,9.6c-1,1-1.1,2.5-0.2,3.6l12.9,16.7c0.8,1.1,0.8,2.7,0,3.8
	c-3.8,6.2-6.6,12.8-8.2,19.8c-0.3,1.4-1.5,2.4-2.9,2.6l-20.7,2.7C11,90.6,10,91.8,10,93.2v13.7c0,1.4,1,2.5,2.4,2.7l20.9,2.7
	c1.4,0.2,2.5,1.2,2.9,2.6c1.6,7,4.4,13.7,8.2,19.8c0.8,1.2,0.8,2.7,0,3.9l-13,16.7c-0.8,1.1-0.8,2.6,0.2,3.6l9.6,9.7
	c0.5,0.5,1.2,0.8,1.9,0.8c0.6,0,1.2-0.2,1.7-0.6l12-9.3c0.2-0.2,0.5-0.3,0.8-0.3c0.4,0,0.8,0.2,1.1,0.5l2.5,3.2
	c0.2,0.3,0.3,0.6,0.3,1c0,0.4-0.2,0.7-0.5,0.9l-16.3,12.5c-0.6,0.4-1.3,0.7-2,0.7c-1,0-1.8-0.3-2.4-1L23,159.8
	c-1.2-1.2-1.3-3.1-0.3-4.4l13.6-17.7c0.7-0.9,0.7-2,0.2-3c-2.5-4.5-4.5-9.4-6-14.3c-0.3-1-1.2-1.8-2.3-1.9l-22.2-2.9
	c-1.7-0.2-2.9-1.7-2.9-3.4V87.8c0-1.7,1.2-3.1,2.9-3.4l22.2-2.9c1.1-0.1,1.9-0.9,2.3-1.9c1.5-5,3.5-9.8,6-14.3c0.5-1,0.4-2.1-0.2-3
	L22.7,44.6c-1-1.3-0.9-3.2,0.3-4.4L40.2,23c0.6-0.6,1.5-1,2.4-1c0.7,0,1.5,0.2,2,0.7l17.7,13.6c0.5,0.4,1,0.6,1.7,0.6
	c0.5,0,0.9-0.1,1.3-0.3c4.5-2.5,9.4-4.5,14.3-6c1-0.3,1.8-1.2,1.9-2.3l2.9-22.2c0.2-1.7,1.7-2.9,3.3-2.9l24.4,0
	c1.7,0,3.1,1.3,3.4,2.9l2.9,22.2c0.1,1.1,0.9,1.9,1.9,2.3c5,1.5,9.8,3.5,14.3,6c0.4,0.2,0.9,0.3,1.3,0.3c0.6,0,1.2-0.2,1.7-0.6
	l17.7-13.6c0.6-0.5,1.3-0.7,2-0.7c0.9,0,1.8,0.4,2.4,1L177,40.2c1.2,1.2,1.3,3.1,0.3,4.4l-13.6,17.7c-0.7,0.9-0.7,2-0.2,3
	c2.5,4.5,4.5,9.3,5.9,14.3c0.3,1,1.2,1.8,2.3,1.9l22.1,2.9c1.6,0.2,2.9,1.7,2.9,3.3v24.4c0,1.7-1.2,3.1-2.9,3.4l-22.2,2.9
	c-1.1,0.1-2,0.9-2.3,1.9c-1.5,5-3.5,9.8-6,14.3c-0.5,1-0.4,2.1,0.2,3l13.6,17.7c1,1.3,0.9,3.2-0.3,4.4L159.8,177
	C159.2,177.7,158.3,178,157.4,178L157.4,178z"/>
<path class="st0" d="M157.4,177.9c-0.7,0-1.4-0.2-2-0.7l-16.3-12.5c-0.3-0.2-0.4-0.5-0.5-0.8c0-0.3,0-0.6,0.2-0.9l2.5-3.2
	c0.2-0.3,0.6-0.5,1-0.5c0.3,0,0.5,0.1,0.7,0.3l12,9.2c0.5,0.4,1.1,0.6,1.7,0.6c0.8,0,1.5-0.3,2-0.8l9.7-9.7c1-1,1.1-2.6,0.2-3.7
	l-12.9-16.7c-0.7-1.1-0.7-2.6,0-3.7c3.8-6.2,6.6-12.8,8.2-19.9c0.3-1.3,1.4-2.3,2.8-2.5l20.7-2.8c1.4-0.2,2.5-1.4,2.5-2.8V93.2
	c0-1.4-1.1-2.6-2.5-2.8l-20.9-2.7c-1.4-0.2-2.5-1.2-2.8-2.5c-1.6-7-4.4-13.7-8.2-19.9c-0.8-1.1-0.8-2.6,0-3.7l12.9-16.7
	c0.9-1.1,0.8-2.7-0.2-3.7l-9.7-9.7c-0.5-0.5-1.2-0.8-2-0.8c-0.6,0-1.2,0.2-1.7,0.6l-16.7,12.9c-0.5,0.4-1.2,0.6-1.8,0.6
	c-0.7,0-1.3-0.2-1.9-0.6c-6.2-3.8-12.8-6.6-19.9-8.2c-1.3-0.3-2.3-1.4-2.5-2.8l-2.5-20.7c-0.2-1.4-1.4-2.5-2.8-2.5H93.2
	c-1.4,0-2.6,1.1-2.8,2.5l-2.7,20.9c-0.2,1.4-1.2,2.5-2.5,2.8c-7,1.6-13.7,4.4-19.9,8.2c-0.6,0.4-1.2,0.6-1.9,0.6s-1.3-0.2-1.9-0.6
	l-16.7-13c-0.5-0.4-1.1-0.6-1.7-0.6c-0.8,0-1.5,0.3-2,0.8l-9.6,9.6c-1,1-1.1,2.6-0.2,3.7l12.9,16.7c0.7,1.1,0.7,2.6,0,3.7
	c-3.8,6.2-6.6,12.8-8.2,19.9c-0.3,1.3-1.4,2.3-2.8,2.5l-20.7,2.7c-1.4,0.2-2.5,1.4-2.5,2.8v13.7c0,1.4,1.1,2.6,2.5,2.8l20.9,2.7
	c1.4,0.2,2.5,1.2,2.8,2.5c1.6,7,4.4,13.7,8.2,19.9c0.8,1.1,0.8,2.6,0,3.8l-13,16.7c-0.9,1.1-0.8,2.7,0.2,3.7l9.6,9.7
	c0.5,0.5,1.2,0.8,2,0.8c0.6,0,1.2-0.2,1.7-0.6l12-9.3c0.2-0.2,0.5-0.3,0.7-0.3c0.4,0,0.7,0.2,1,0.5l2.5,3.2c0.2,0.3,0.3,0.6,0.2,0.9
	c0,0.3-0.2,0.6-0.5,0.8l-16.3,12.5c-0.6,0.4-1.2,0.6-1.9,0.6c-0.9,0-1.7-0.3-2.4-0.9l-17.2-17.2c-1.2-1.2-1.3-3-0.3-4.3l13.6-17.7
	c0.7-0.9,0.8-2.1,0.2-3.1c-2.5-4.5-4.5-9.3-5.9-14.3c-0.3-1.1-1.2-1.9-2.3-2l-22.2-2.9c-1.6-0.2-2.8-1.6-2.8-3.3V87.8
	c0-1.7,1.2-3.1,2.8-3.3l22.2-2.9c1.1-0.1,2-0.9,2.3-2c1.5-5,3.5-9.8,5.9-14.3c0.5-1,0.5-2.2-0.2-3.1L22.8,44.6
	c-1-1.3-0.9-3.1,0.3-4.3l17.2-17.2c0.6-0.6,1.4-1,2.3-1c0.7,0,1.4,0.2,2,0.7l17.7,13.6c0.5,0.4,1.1,0.6,1.7,0.6c0.5,0,1-0.1,1.4-0.4
	c4.5-2.5,9.3-4.5,14.3-5.9c1.1-0.3,1.9-1.2,2-2.3l2.9-22.2c0.2-1.6,1.6-2.8,3.2-2.8l24.4,0c1.7,0,3.1,1.2,3.3,2.8l2.9,22.2
	c0.1,1.1,0.9,2,2,2.3c5,1.5,9.8,3.5,14.3,5.9c0.4,0.2,0.9,0.4,1.4,0.4c0.6,0,1.2-0.2,1.7-0.6l17.7-13.6c0.6-0.4,1.3-0.7,2-0.7
	c0.9,0,1.7,0.3,2.3,1L177,40.3c1.2,1.2,1.3,3,0.3,4.3l-13.6,17.7c-0.7,0.9-0.8,2.1-0.2,3.1c2.5,4.5,4.5,9.3,5.9,14.3
	c0.3,1.1,1.2,1.9,2.3,2l22.1,2.9c1.6,0.2,2.8,1.6,2.8,3.2v24.4c0,1.7-1.2,3.1-2.8,3.3l-22.2,2.9c-1.1,0.1-2,0.9-2.3,2
	c-1.5,5-3.5,9.8-5.9,14.3c-0.5,1-0.5,2.2,0.2,3.1l13.6,17.7c1,1.3,0.9,3.1-0.3,4.3L159.7,177C159.1,177.6,158.3,177.9,157.4,177.9z"
	/>
<path class="st0" d="M98,196.7c-0.7,0-1.3-0.6-1.3-1.3v-32.5c0-0.7,0.6-1.3,1.3-1.3h4.1c0.7,0,1.3,0.6,1.3,1.3v32.5
	c0,0.7-0.6,1.3-1.3,1.3H98z"/>
<path class="st0" d="M98,196.6c-0.7,0-1.2-0.6-1.2-1.2v-32.5c0-0.7,0.6-1.2,1.2-1.2h4.1c0.7,0,1.2,0.6,1.2,1.2v32.5
	c0,0.7-0.6,1.2-1.2,1.2H98z"/>
<path class="st0" d="M118.3,196.7c-0.7,0-1.3-0.6-1.3-1.3V148H83.1v47.4c0,0.7-0.6,1.3-1.3,1.3h-4.1c-0.7,0-1.3-0.6-1.3-1.3v-39.3
	h-2.7c-7.4,0-13.5-6.1-13.5-13.5v-36.2C60,96.3,67.5,87.9,77.5,86.8l9.9-1.1l-0.9-1c-4-4.5-6.2-10.6-6.2-17.2
	c0-13,8.8-23.7,19.6-23.7s19.6,10.6,19.6,23.7c0,6.6-2.2,12.7-6.2,17.3l-0.9,1l10,1.1c10,1.1,17.5,9.5,17.4,19.6v36.1
	c0,7.4-6.1,13.5-13.5,13.5h-2.7v39.3c0,0.7-0.6,1.3-1.3,1.3H118.3z M122.3,108.8c0.7,0,1.3,0.6,1.3,1.3v36.5c0,1.5,1.2,2.7,2.7,2.7
	c3.7,0,6.8-3,6.8-6.8v-36.2c0-6.6-4.9-12.1-11.5-12.9l-20.1-2.1c-0.2,0-0.3-0.1-0.5-0.2l-0.2-0.1l-0.2,0c-0.3,0-0.5,0-0.8,0
	c-0.3,0-0.6,0-0.9,0l-0.2,0l-0.2,0.1c-0.1,0.1-0.3,0.1-0.4,0.1l-20.1,2.2c-6.6,0.7-11.5,6.3-11.5,12.9v36.2c0,3.7,3,6.8,6.8,6.8
	c1.5,0,2.7-1.2,2.7-2.7v-36.5c0-0.7,0.6-1.3,1.3-1.3h4.1c0.7,0,1.3,0.6,1.3,1.3v31.1h33.9v-31.1c0-0.7,0.6-1.3,1.3-1.3H122.3z
	 M100,50.6c-7.1,0-12.9,7.6-12.9,16.9s5.8,16.9,12.9,16.9s12.9-7.6,12.9-16.9S107.1,50.6,100,50.6z"/>
<path class="st0" d="M118.3,196.6c-0.7,0-1.2-0.6-1.2-1.2v-47.5H83v47.5c0,0.7-0.6,1.2-1.2,1.2h-4.1c-0.7,0-1.2-0.6-1.2-1.2V156
	h-2.8c-7.4,0-13.4-6-13.4-13.4v-36.2c-0.1-10,7.4-18.4,17.4-19.5l10.1-1.1l-1-1.2c-4-4.5-6.1-10.6-6.1-17.1c0-13,8.7-23.6,19.5-23.6
	c10.8,0,19.5,10.6,19.5,23.6c0,6.6-2.2,12.7-6.2,17.2l-1,1.2l10.2,1.1c10,1.1,17.4,9.5,17.4,19.5v36.1c0,7.4-6,13.4-13.4,13.4h-2.8
	v39.4c0,0.7-0.6,1.2-1.2,1.2H118.3z M122.3,108.9c0.7,0,1.2,0.6,1.2,1.2v36.5c0,1.6,1.3,2.8,2.8,2.8c3.8,0,6.9-3.1,6.9-6.9v-36.2
	c0-6.7-4.9-12.2-11.6-13l-20.1-2.1c-0.2,0-0.3-0.1-0.5-0.1l-0.2-0.1l-1,0c-0.3,0-0.6,0-0.9,0l-0.2,0l-0.1,0.1
	c-0.2,0.1-0.3,0.1-0.4,0.1l-20.1,2.2c-6.6,0.7-11.6,6.3-11.6,13v36.2c0,3.8,3.1,6.9,6.9,6.9c1.6,0,2.8-1.3,2.8-2.8v-36.5
	c0-0.7,0.6-1.2,1.2-1.2h4.1c0.7,0,1.2,0.6,1.2,1.2v31.2H117v-31.2c0-0.7,0.6-1.2,1.2-1.2H122.3z M100,50.5c-7.2,0-13,7.6-13,17
	s5.8,17,13,17c7.2,0,13-7.6,13-17S107.2,50.5,100,50.5z"/>
</svg>
