<?xml version="1.0" encoding="utf-8"?>
<!-- Generator: Adobe Illustrator 27.8.1, SVG Export Plug-In . SVG Version: 6.00 Build 0)  -->
<svg version="1.1" id="Layer_1" xmlns="http://www.w3.org/2000/svg" xmlns:xlink="http://www.w3.org/1999/xlink" x="0px" y="0px"
	 viewBox="0 0 200 200" style="enable-background:new 0 0 200 200;" xml:space="preserve">
<style type="text/css">
	.st0{fill:#246FCF;}
</style>
<path class="st0" d="M168.4,5.3H31.6C17.1,5.3,5.3,17.1,5.3,31.6v136.7c0,14.5,11.8,26.3,26.3,26.3h136.7
	c14.5,0,26.3-11.8,26.3-26.3V31.6C194.7,17.1,182.9,5.3,168.4,5.3z M137.5,187.6v-51.9l50.1-19.1l0,51.8c0,10.6-8.6,19.2-19.2,19.2
	H137.5z M187.6,65.6V109l-50.1,19.1V65.6H187.6z M168.4,12.4c10.6,0,19.2,8.7,19.2,19.2v26.8h-50.1V12.4H168.4z M84.4,59
	c6.4,0,11.6,5.2,11.6,11.6c0,6.4-5.2,11.6-11.6,11.6c-3.1,0-6-1.2-8.2-3.4c-2.2-2.2-3.4-5.1-3.4-8.2C72.8,64.3,78,59,84.4,59z
	 M85,30.7c9.2,0,16.7,7.5,16.7,16.7c0,4-1,7.8-2.9,11.3c-3.5-4.4-8.9-6.9-14.5-6.9c-3.9,0-7.6,1.2-10.8,3.5
	c-5.7,4.1-8.6,11-7.6,17.9c-14,5.1-23.4,18.5-23.4,33.4c0,17.4-12.9,31.6-30.1,33.5l0-108.4c0-10.6,8.6-19.2,19.2-19.2h31.8
	C65.2,22.9,74.3,30.7,85,30.7z M12.4,147.2c20.9-1.8,37.2-19.5,37.2-40.6c0-11.9,7.5-22.6,18.6-26.7c2.7,4.7,7.3,8.1,12.7,9.1
	l0,32.4c0,0.9,0.3,1.9,0.9,2.5s1.5,1.1,2.5,1.1l0.1,0c1.9,0,3.5-1.5,3.5-3.4c0-0.1,0-32.7,0-32.7c4.6-0.8,8.7-3.3,11.5-7.1
	c2.9-3.9,4.2-8.8,3.5-13.6c-0.1-0.8-0.3-1.6-0.5-2.4c4.1-5.3,6.3-11.9,6.3-18.5c0-13.1-10.7-23.8-23.8-23.8
	c-6.8,0-12.7-4.7-14.3-11.2h59.7v118.4L13.7,175.3c-0.9-2.2-1.3-4.5-1.3-6.9V147.2z M130.5,138.4l0,49.2H69.2v-25.9L130.5,138.4z
	 M62.1,164.4v23.2H31.6c-5.4,0-10.4-2.3-14.1-6.2L62.1,164.4z"/>
</svg>
