<?xml version="1.0" encoding="utf-8"?>
<!-- Generator: Adobe Illustrator 27.8.1, SVG Export Plug-In . SVG Version: 6.00 Build 0)  -->
<svg version="1.1" id="Layer_1" xmlns="http://www.w3.org/2000/svg" xmlns:xlink="http://www.w3.org/1999/xlink" x="0px" y="0px"
	 viewBox="0 0 200 200" style="enable-background:new 0 0 200 200;" xml:space="preserve">
<style type="text/css">
	.st0{fill:#246FCF;}
</style>
<g>
	<path class="st0" d="M176.3,5.1c-1.4-1.4-3.3-2.2-5.4-2.2H43.2c-2.1,0-4,0.9-5.4,2.2c-1.4,1.4-2.2,3.3-2.2,5.4v17.7H24.5
		c-1.7,0-3,1.4-3,3c0,1.7,1.4,3,3,3h11.1v28.3H24.5c-1.7,0-3,1.4-3,3c0,1.7,1.4,3,3,3h11.1V97H24.5c-1.7,0-3,1.4-3,3
		c0,1.7,1.4,3,3,3h11.1v28.3H24.5c-1.7,0-3,1.4-3,3c0,1.7,1.4,3,3,3h11.1v28.3H24.5c-1.7,0-3,1.4-3,3c0,1.7,1.4,3,3,3h11.1v17.7
		c0,2.1,0.9,4,2.2,5.4c1.4,1.4,3.3,2.2,5.4,2.2H171c2.1,0,4-0.9,5.4-2.2c1.4-1.4,2.2-3.3,2.2-5.4v-179
		C178.6,8.4,177.7,6.5,176.3,5.1z M172.5,189.5c0,0.4-0.2,0.8-0.4,1.1c-0.3,0.3-0.7,0.4-1.1,0.4H43.2c-0.4,0-0.8-0.2-1.1-0.4
		c-0.3-0.3-0.4-0.7-0.4-1.1v-17.7h11.1c1.7,0,3-1.4,3-3c0-1.7-1.4-3-3-3H41.7v-28.3h11.1c1.7,0,3-1.4,3-3c0-1.7-1.4-3-3-3H41.7V103
		h11.1c1.7,0,3-1.4,3-3c0-1.7-1.4-3-3-3H41.7V68.6h11.1c1.7,0,3-1.4,3-3c0-1.7-1.4-3-3-3H41.7V34.3h11.1c1.7,0,3-1.4,3-3
		c0-1.7-1.4-3-3-3H41.7V10.5c0-0.4,0.2-0.8,0.4-1.1C42.4,9.2,42.8,9,43.2,9H171c0.4,0,0.8,0.2,1.1,0.4s0.4,0.7,0.4,1.1V189.5z"/>
	<path class="st0" d="M113,59.1c-11.3,0-21.5,4.6-28.9,12c-7.4,7.4-12,17.6-12,28.9c0,11.3,4.6,21.5,12,28.9
		c7.4,7.4,17.6,12,28.9,12c11.3,0,21.5-4.6,28.9-12c7.4-7.4,12-17.6,12-28.9c0-11.3-4.6-21.5-12-28.9S124.3,59.1,113,59.1z
		 M94.4,129.4c0.6-2,1.8-3.8,3.4-5.2c2-1.7,4.5-2.8,7.3-2.8h0.9c0.9,0.7,1.9,1.2,2.9,1.6c1.3,0.5,2.7,0.8,4.2,0.8
		c1.4,0,2.8-0.3,4.2-0.8c1-0.4,1.9-0.9,2.9-1.6h0.9c2.8,0,5.3,1,7.3,2.7c1.6,1.4,2.8,3.2,3.4,5.2c-5.4,3.4-11.8,5.4-18.6,5.4
		C106.2,134.9,99.8,132.9,94.4,129.4z M137.7,124.6c-0.3,0.3-0.7,0.6-1,0.9c-1-2.3-2.6-4.3-4.5-5.9c-3-2.6-7-4.2-11.3-4.2H119h0
		c-0.7,0-1.4,0.2-1.9,0.7l1.9,2.3l-1.9-2.3c-0.7,0.6-1.4,1-2.2,1.3c-0.6,0.2-1.3,0.4-1.9,0.4c-0.6,0-1.3-0.1-1.9-0.4
		c-0.7-0.3-1.4-0.7-2-1.2c-0.5-0.5-1.3-0.8-2.1-0.8h-1.9c-4.3,0-8.3,1.6-11.3,4.3c-1.9,1.6-3.4,3.6-4.4,5.9c-0.3-0.3-0.7-0.6-1-1
		c-6.3-6.3-10.2-15-10.2-24.6s3.9-18.3,10.2-24.6c6.3-6.3,15-10.2,24.6-10.2s18.3,3.9,24.6,10.2c6.3,6.3,10.2,15,10.2,24.6
		S144,118.3,137.7,124.6z"/>
	<path class="st0" d="M125.7,78.5c-3.3-2.6-7.8-3.8-12.7-3.8s-9.4,1.2-12.7,3.8c-3.1,2.5-5,6.1-5,10.9c0,5,2.2,11.6,5.6,16.5
		c3.1,4.5,7.3,7.8,12.1,7.8c4.8,0,9-3.3,12.1-7.8c3.4-5,5.6-11.6,5.6-16.5C130.7,84.6,128.8,81,125.7,78.5z M120.2,102.5
		c-2.1,3-4.6,5.2-7.1,5.2s-5.1-2.2-7.1-5.2c-2.8-4-4.5-9.2-4.5-13.1c0-2.8,1-4.9,2.7-6.2c2.1-1.7,5.3-2.5,8.9-2.5s6.8,0.8,8.9,2.5
		c1.7,1.3,2.7,3.4,2.7,6.2C124.6,93.3,122.9,98.5,120.2,102.5z"/>
	<polygon class="st0" points="113,74.7 113,74.7 113,74.7 	"/>
</g>
</svg>
