<?xml version="1.0" encoding="utf-8"?>
<!-- Generator: Adobe Illustrator 27.8.1, SVG Export Plug-In . SVG Version: 6.00 Build 0)  -->
<svg version="1.1" id="Layer_1" xmlns="http://www.w3.org/2000/svg" xmlns:xlink="http://www.w3.org/1999/xlink" x="0px" y="0px"
	 viewBox="0 0 200 200" style="enable-background:new 0 0 200 200;" xml:space="preserve">
<style type="text/css">
	.st0{fill:#246FCF;}
</style>
<g>
	<path class="st0" d="M173.3,35.8h-11.9v-11c0-1.6-1.3-2.9-2.9-2.9h-11.8V11.2c0-1.7-1.4-3.1-3.1-3.1H27c-1.7,0-3.1,1.4-3.1,3.1
		v149.8c0,1.7,1.4,3.1,3.1,3.1h11.6v11c0,1.6,1.3,2.9,2.9,2.9h11.8v11c0,1.5,1.3,2.8,2.8,2.8h117.3c1.5,0,2.8-1.3,2.8-2.8V38.6
		C176.1,37.1,174.8,35.8,173.3,35.8z M59.5,175.2C59.5,175.2,59.5,175.2,59.5,175.2l0-133h110.2l0,143.4H59.5V175.2z M56,35.8
		c-1.5,0-2.8,1.3-2.8,2.8v133.1h-8.3v-10.6c0,0,0,0,0,0V28.3h98.8h11.4v7.5H56L56,35.8z M30.2,14.5h110.2V22H42.5h-0.7
		c-1.8,0-3.3,1.5-3.3,3.3V26v131.9h-8.3V14.5z"/>
	<path class="st0" d="M74.9,175.1h18.6v-56.2H74.9V175.1z M87.2,125.2v43.6h-6v-43.6H87.2z"/>
	<path class="st0" d="M95.2,175.1h18.6v-35.2H95.2V175.1z M107.5,146.2v22.6h-6v-22.6H107.5z"/>
	<path class="st0" d="M115.5,175.1h18.6v-45.7h-18.6V175.1z M127.8,136.1v32.6h-6v-33.1h5.6C127.6,135.7,127.8,135.9,127.8,136.1z"
		/>
	<path class="st0" d="M135.8,175.1h18.6v-50.6h-18.6V175.1z M148.1,130.8v37.9h-6v-37.9H148.1z"/>
	<path class="st0" d="M85.8,115.4h59.8v-6.3H88.9c-0.2,0-0.4-0.2-0.4-0.4V103l3.3-3.1l2.2-2l3.4-3.1l7.3-6.7
		c0.8,0.3,1.6,0.4,2.5,0.4c0.8,0,1.5-0.1,2.2-0.3l5.2,5.6l-0.1,0.1l4.3,4.6l17.4-16c1,0.4,2.1,0.7,3.2,0.7c4.3,0,7.8-3.5,7.8-7.8
		s-3.5-7.8-7.8-7.8s-7.8,3.5-7.8,7.8c0,0.8,0.1,1.6,0.4,2.4l-12.7,11.7l-5-5.4c0.5-1,0.8-2.1,0.8-3.4c0-4.3-3.5-7.8-7.8-7.8
		c-4.3,0-7.8,3.5-7.8,7.8c0,1.1,0.2,2.1,0.6,3l-5.7,5.3l-5.9,5.4V58.7h-6.3v53C82.2,113.8,83.8,115.4,85.8,115.4z M139.4,76.9
		c-0.8,0-1.5-0.7-1.5-1.5s0.7-1.5,1.5-1.5s1.5,0.7,1.5,1.5S140.2,76.9,139.4,76.9z M107.3,82.2c-0.8,0-1.5-0.7-1.5-1.5
		s0.7-1.5,1.5-1.5c0.8,0,1.5,0.7,1.5,1.5S108.1,82.2,107.3,82.2z"/>
</g>
</svg>
