<?xml version="1.0" encoding="utf-8"?>
<!-- Generator: Adobe Illustrator 27.8.1, SVG Export Plug-In . SVG Version: 6.00 Build 0)  -->
<svg version="1.1" id="Layer_1" xmlns="http://www.w3.org/2000/svg" xmlns:xlink="http://www.w3.org/1999/xlink" x="0px" y="0px"
	 viewBox="0 0 200 200" style="enable-background:new 0 0 200 200;" xml:space="preserve">
<style type="text/css">
	.st0{fill:#246FCF;}
</style>
<g>
	<path class="st0" d="M100,158.2c-32.1,0-58.2-26.1-58.2-58.2c0-32.1,26.1-58.2,58.2-58.2c15.5,0,30.1,6.1,41.1,17.1
		c11,11,17.1,25.6,17.1,41.1C158.2,132.1,132.1,158.2,100,158.2z M100,48.3c-28.5,0-51.7,23.2-51.7,51.7c0,28.5,23.2,51.7,51.7,51.7
		c13.8,0,26.8-5.4,36.5-15.2c9.8-9.8,15.2-22.8,15.2-36.5C151.7,71.5,128.5,48.3,100,48.3z"/>
	<path class="st0" d="M88.9,197.4c-1.6,0-2.9-1.1-3.2-2.6l-3-15.6l-0.7-0.2c-2.1-0.5-4.2-1-6.1-1.6l-0.7-0.2l-10.4,12
		c-0.6,0.7-1.5,1.1-2.4,1.1c-0.6,0-1.1-0.2-1.6-0.4l-19.2-11.1c-1.3-0.8-1.9-2.4-1.4-3.9l5.2-15.1l-0.5-0.5
		c-1.6-1.4-3.1-2.9-4.5-4.5l-0.5-0.5L25,159.7c-0.3,0.1-0.7,0.2-1.1,0.2c-1.2,0-2.2-0.6-2.8-1.6l-11.1-19.2c-0.8-1.3-0.5-3,0.7-4.1
		l12-10.4l-0.2-0.7c-0.6-2-1.2-4-1.6-6.1l-0.2-0.7l-15.6-3c-1.5-0.3-2.6-1.6-2.6-3.2l0-22.1c0-1.6,1.1-2.9,2.6-3.2l15.6-3l0.2-0.7
		c0.5-2.1,1-4.2,1.6-6.1l0.2-0.7l-12-10.4c-1.2-1-1.5-2.7-0.7-4.1l11.1-19.2c0.6-1,1.6-1.6,2.8-1.6c0.4,0,0.7,0.1,1.1,0.2l15.1,5.2
		l0.5-0.5c1.4-1.5,2.9-3,4.5-4.5l0.5-0.5l-5.2-15c-0.5-1.5,0.1-3.1,1.4-3.9l19.2-11.1c0.5-0.3,1-0.4,1.6-0.4c0.9,0,1.8,0.4,2.5,1.1
		l10.4,12l0.7-0.2c2-0.6,4.1-1.2,6.1-1.6l0.7-0.2l3-15.6c0.3-1.5,1.6-2.6,3.2-2.6h22.1c1.6,0,2.9,1.1,3.2,2.6l3,15.6l0.7,0.2
		c2.1,0.5,4.1,1,6.1,1.6l0.7,0.2l10.4-12c0.6-0.7,1.5-1.1,2.5-1.1c0.6,0,1.1,0.1,1.6,0.4l19.2,11.1c1.3,0.8,1.9,2.4,1.4,3.9
		l-5.2,15.1l0.5,0.5c1.5,1.4,3,2.9,4.5,4.5l0.5,0.5l15.1-5.2c0.3-0.1,0.7-0.2,1.1-0.2c1.2,0,2.2,0.6,2.8,1.6l11.1,19.2
		c0.8,1.3,0.5,3.1-0.7,4.1l-12,10.4l0.2,0.7c0.6,2,1.2,4.1,1.6,6.1l0.2,0.7l15.6,3c1.5,0.3,2.6,1.6,2.6,3.2l0,22.1
		c0,1.6-1.1,2.9-2.6,3.2l-15.6,3l-0.2,0.7c-0.5,2.1-1,4.1-1.6,6.1l-0.2,0.7l12,10.4c1.2,1,1.5,2.7,0.7,4.1l-11.1,19.2
		c-0.6,1-1.6,1.6-2.8,1.6l0,0c-0.4,0-0.7-0.1-1.1-0.2l-15.1-5.2l-0.5,0.5c-1.4,1.5-2.9,3-4.5,4.5l-0.5,0.5l5.2,15.1
		c0.5,1.5-0.1,3.1-1.4,3.9l-19.2,11.1c-0.5,0.3-1.1,0.4-1.6,0.4c-0.9,0-1.8-0.4-2.4-1.1l-10.4-12l-0.7,0.2c-2,0.6-4,1.2-6.1,1.6
		l-0.7,0.2l-3,15.6c-0.3,1.5-1.6,2.6-3.2,2.6H88.9z M74.3,170.2c0.4,0,0.7,0.1,1.1,0.2c3.5,1.2,7.1,2.2,10.8,2.9
		c1.3,0.2,2.3,1.3,2.6,2.6l2.9,15.1h16.8l2.9-15.1c0.3-1.3,1.3-2.3,2.6-2.6c3.7-0.7,7.3-1.7,10.8-2.9c0.3-0.1,0.7-0.2,1.1-0.2
		c0.9,0,1.8,0.4,2.5,1.1l10.1,11.7l14.5-8.4l-5.1-14.6c-0.4-1.3-0.1-2.6,0.9-3.5c2.8-2.4,5.5-5.1,7.9-7.9c0.6-0.7,1.5-1.1,2.4-1.1
		c0.4,0,0.7,0.1,1.1,0.2l14.6,5.1l8.4-14.5l-11.7-10.1c-1-0.9-1.4-2.3-0.9-3.5c1.2-3.5,2.2-7.1,2.9-10.8c0.2-1.3,1.3-2.3,2.6-2.6
		l15.1-2.9l0-16.8l-15.1-2.9c-1.3-0.3-2.3-1.3-2.6-2.6c-0.7-3.7-1.7-7.3-2.9-10.8c-0.4-1.2-0.1-2.7,0.9-3.5L183,61.8l-8.4-14.5
		L160,52.3c-0.3,0.1-0.7,0.2-1.1,0.2c-0.9,0-1.8-0.4-2.4-1.1c-2.4-2.8-5.1-5.5-7.9-7.9c-1-0.9-1.4-2.3-0.9-3.5l5.1-14.6L138.2,17
		l-10.1,11.7c-0.6,0.7-1.5,1.1-2.5,1.1c-0.4,0-0.7-0.1-1.1-0.2c-3.5-1.2-7.1-2.2-10.8-2.9c-1.3-0.2-2.3-1.3-2.6-2.6L108.4,9H91.6
		l-2.9,15.1c-0.3,1.3-1.3,2.3-2.6,2.6c-3.7,0.7-7.3,1.7-10.8,2.9c-0.3,0.1-0.7,0.2-1.1,0.2c-0.9,0-1.8-0.4-2.5-1.1L61.8,17
		l-14.5,8.4L52.3,40c0.4,1.3,0.1,2.6-0.9,3.5c-2.8,2.4-5.5,5.1-7.9,7.9c-0.6,0.7-1.5,1.1-2.4,1.1c-0.4,0-0.7-0.1-1.1-0.2l-14.6-5.1
		L17,61.8l11.7,10.1c1,0.9,1.4,2.3,0.9,3.5c-1.2,3.5-2.2,7.1-2.9,10.8c-0.2,1.3-1.3,2.3-2.6,2.6L9,91.6l0,16.8l15.1,2.9
		c1.3,0.3,2.3,1.3,2.6,2.6c0.7,3.7,1.7,7.3,2.9,10.8c0.4,1.3,0.1,2.6-0.9,3.5L17,138.2l8.4,14.5l14.6-5.1c0.3-0.1,0.7-0.2,1.1-0.2
		c0.9,0,1.8,0.4,2.4,1.1c2.4,2.8,5.1,5.5,7.9,7.9c1,0.9,1.4,2.3,0.9,3.5l-5.1,14.6l14.5,8.4l10.1-11.7
		C72.5,170.6,73.4,170.2,74.3,170.2z"/>
</g>
</svg>
